{"title":"Irene Huss, The Fire Dance 2008 DVDrip Swedish/English Klam","uid":6889979,"size":1576585331,"categoryP":"video","categoryS":"movies","magnet":"?xt=urn:btih:f4e902017f326582e1638f84f168cc8b0ccb9d8c&amp;dn=Irene+Huss%2C+The+Fire+Dance+2008+DVDrip+Swedish%2FEnglish+Klam&amp;tr=udp%3A%2F%2Ftracker.openbittorrent.com%3A80&amp;tr=udp%3A%2F%2Fopen.demonii.com%3A1337&amp;tr=udp%3A%2F%2Ftracker.coppersurfer.tk%3A6969&amp;tr=udp%3A%2F%2Fexodus.desync.com%3A6969","seeders":1,"leechers":1,"uploader":"Klambake","files":-1,"time":1323975615,"description":"With: Angela Kovacs, Lars Brandeby and Anki LidÃƒÂ©n\n\nGothenburg is getroffen door een reeks branden. Irene Huss start onderzoek naar een geval van brandstichting dat linkt met een tragisch onopgeloste zaak van vijftien jaar geleden...\n\nGothenburg is struck by a series of fires. Irene Huss starts investigating an arson case that may be connected to an event that occurred fifteen years ago, a tragic unsolved case that challenged Irene when she first came to the Violent Crimes Unit. \n\nEnglish Softsubs (srt) included.\n\n------------------------ Dutch Friends ------------------------\n---------------------------------------------------------------\n- Bezoek ook eens mijn vrienden op: &lt;a href=&quot; http://www.Film-Test.nl&quot; rel=&quot;nofollow&quot; target=&quot;_NEW&quot;&gt; http://www.Film-Test.nl&lt;/a&gt; --\n----- voor mijn Nederlandse Sync. ondertitels ---- en meer ----\n------- http://www.Film-Test.nl ---- voor Films en meer -------\n---------------------------------------------------------------\n\nGeneral:\n\nComplete name                    : Irene Huss, The Fire Dance\\The Fire Dance.avi\nFormat                           : AVI\nFormat/Info                      : Audio Video Interleave\nFile size                        : 1.47 GiB\nDuration                         : 1h 27mn\nOverall bit rate                 : 2 410 Kbps\n\nVideo:\n\nFormat                           : MPEG-4 Visual\nFormat profile                   : Simple@L3\nFormat settings, BVOP            : No\nFormat settings, QPel            : No\nFormat settings, GMC             : No warppoints\nFormat settings, Matrix          : Default (H.263)\nCodec ID                         : XVID\nCodec ID/Hint                    : XviD\nDuration                         : 1h 27mn\nBit rate                         : 1 951 Kbps\nWidth                            : 652 pixels\nHeight                           : 352 pixels\nDisplay aspect ratio             : 1.852\nFrame rate                       : 25.000 fps\nColor space                      : YUV\nChroma subsampling               : 4:2:0\nBit depth                        : 8 bits\nScan type                        : Progressive\nCompression mode                 : Lossy\nBits/(Pixel*Frame)               : 0.340\nStream size                      : 1.19 GiB (81%)\nWriting library                  : XviD 1.1.2 (UTC 2006-11-01)\n\nAudio:\n\nFormat                           : AC-3\nFormat/Info                      : Audio Coding 3\nMode extension                   : CM (complete main)\nCodec ID                         : 2000\nDuration                         : 1h 27mn\nBit rate mode                    : Constant\nBit rate                         : 448 Kbps\nChannel(s)                       : 6 channels\nChannel positions                : Front: L C R, Side: L R, LFE\nSampling rate                    : 48.0 KHz\nBit depth                        : 16 bits\nCompression mode                 : Lossy\nStream size                      : 279 MiB (19%)\nAlignment                        : Aligned on interleaves\nInterleave, duration             : 32 ms (0.80 video frame)\nInterleave, preload duration     : 96 ms\n","torrent":{"xt":"urn:btih:f4e902017f326582e1638f84f168cc8b0ccb9d8c","amp;dn":"Irene+Huss%2C+The+Fire+Dance+2008+DVDrip+Swedish%2FEnglish+Klam","amp;tr":["udp%3A%2F%2Ftracker.openbittorrent.com%3A80","udp%3A%2F%2Fopen.demonii.com%3A1337","udp%3A%2F%2Ftracker.coppersurfer.tk%3A6969","udp%3A%2F%2Fexodus.desync.com%3A6969"],"infoHash":"f4e902017f326582e1638f84f168cc8b0ccb9d8c","infoHashBuffer":{"type":"Buffer","data":[244,233,2,1,127,50,101,130,225,99,143,132,241,104,204,139,12,203,157,140]},"announce":[],"urlList":[]}}